#!OML:ASF H:\Terrain\Walking\May29\JustinRory\Justin.ASF
:FULLY-SPECIFIED
:DEGREES
159
root 12.3848 10.2048 7.77538 -27.453 -59.2489 -0.406654
lowerback 35.1074 2.8456 -4.16774
upperback 14.6386 1.04881 0.485354
thorax -1.70848 -0.23621 2.3749
lowerneck 5.91304 -14.8266 -16.6978
upperneck 18.1051 -24.9952 20.6527
head 9.56683 -12.323 7.3399
rclavicle 5.98342e-014 -2.50469e-014
rhumerus -0.19668 -17.0511 -102.947
rradius 62.3364
rwrist 11.9154
rhand -16.176 33.0901
rfingers 7.12502
rthumb 10.0303 3.34911
lclavicle 5.98342e-014 -2.50469e-014
lhumerus -45.9347 -4.48383 95.7396
lradius 66.6401
lwrist 24.0295
lhand -13.9782 46.0353
lfingers 7.12502
lthumb 12.1501 75.6625
rfemur -63.6634 -9.56169 14.2473
rtibia 93.7194
rfoot -8.88434 -4.96453
rtoes 16.266
lfemur -57.6157 13.8411 2.70065
ltibia 92.1872
lfoot -1.18539 -20.6638
ltoes -12.7393
160
root 12.3858 10.1991 7.7851 -27.5082 -59.3006 -0.225993
lowerback 34.7557 2.74906 -3.95275
upperback 14.3897 1.04547 0.437295
thorax -1.85536 -0.201829 2.21794
lowerneck 6.35172 -14.8157 -16.9139
upperneck 17.9785 -24.9859 20.5414
head 9.45379 -12.3714 7.37066
rclavicle -3.02153e-014 5.96354e-015
rhumerus -0.212989 -16.697 -102.307
rradius 60.641
rwrist 11.5762
rhand -15.8536 34.182
rfingers 7.12502
rthumb 10.3414 4.45627
lclavicle -3.02153e-014 5.96354e-015
lhumerus -45.9586 -4.21045 95.6126
lradius 66.4655
lwrist 24.9094
lhand -14.0823 45.9733
lfingers 7.12502
lthumb 12.0497 75.6064
rfemur -63.8476 -9.6024 13.5672
rtibia 94.1166
rfoot -7.88286 -4.11034
rtoes 13.5484
lfemur -57.8898 13.3557 2.56403
ltibia 92.3348
lfoot -1.59364 -17.899
ltoes -14.9969
161
root 12.3728 10.1767 7.80105 -27.484 -59.2231 -0.18977
lowerback 34.0878 2.63768 -3.51297
upperback 14.4376 1.09415 0.363882
thorax -1.5689 -0.148263 1.9034
lowerneck 6.16901 -15.0015 -16.9954
upperneck 18.288 -25.2658 20.3594
head 9.64339 -12.4904 7.24897
rclavicle -4.07509e-015 1.55052e-014
rhumerus 0.319339 -16.4161 -101.893
rradius 58.9352
rwrist 11.5114
rhand -15.9348 34.0921
rfingers 7.12502
rthumb 10.2631 4.36253
lclavicle -4.07509e-015 1.55052e-014
lhumerus -45.5986 -4.27092 95.4833
lradius 66.1844
lwrist 25.9258
lhand -14.5425 45.4871
lfingers 7.12502
lthumb 11.606 75.1457
rfemur -64.1161 -9.80383 12.8386
rtibia 94.695
rfoot -6.67547 -2.80696
rtoes 11.2595
lfemur -58.366 13.0039 2.3538
ltibia 92.673
lfoot -0.518364 -18.5098
ltoes -9.84506
162
root 12.3556 10.1599 7.8237 -27.6125 -59.1308 -0.151665
lowerback 33.7571 2.61787 -3.24156
upperback 14.3386 1.19942 0.507304
thorax -1.56613 -0.0761122 1.88166
lowerneck 6.23266 -15.1856 -17.1947
upperneck 18.4475 -25.4966 20.0217
head 9.71625 -12.6182 7.11722
rclavicle 2.70347e-014 -2.16675e-014
rhumerus 0.324508 -15.8855 -100.996
rradius 57.3685
rwrist 11.4295
rhand -16.6118 34.0858
rfingers 7.12502
rthumb 9.60991 4.32499
lclavicle 2.70347e-014 -2.16675e-014
lhumerus -45.5033 -4.35394 95.6731
lradius 65.9402
lwrist 27.3207
lhand -15.4972 45.1011
lfingers 7.12502
lthumb 10.6851 74.8094
rfemur -64.1589 -10.0277 12.0251
rtibia 95.319
rfoot -4.96033 -1.00789
rtoes 11.2813
lfemur -58.6327 12.6933 2.11637
ltibia 93.1051
lfoot -0.821172 -17.4779
ltoes -12.8156
163
root 12.3403 10.1502 7.84556 -27.9878 -59.1664 0.0452794
lowerback 33.5826 2.66689 -3.12945
upperback 14.254 1.3248 0.64503
thorax -1.60447 -0.00554531 1.92959
lowerneck 6.15578 -15.4112 -17.3024
upperneck 18.6932 -25.7279 19.4642
head 9.79652 -12.7368 6.88224
rclavicle -5.26282e-014 -2.40529e-014
rhumerus -0.0869805 -14.9709 -99.8982
rradius 56.2933
rwrist 10.8757
rhand -16.9547 34.3455
rfingers 7.12502
rthumb 9.27907 4.56968
lclavicle -5.26282e-014 -2.40529e-014
lhumerus -45.3691 -4.46629 95.8533
lradius 65.7495
lwrist 28.7324
lhand -15.5424 45.5308
lfingers 7.12502
lthumb 10.6416 75.2413
rfemur -64.0372 -9.98337 11.2244
rtibia 95.9403
rfoot -3.12929 0.87589
rtoes 9.85745
lfemur -58.6356 12.4949 1.85285
ltibia 93.5752
lfoot -0.777942 -16.1701
ltoes -13.5301
164
root 12.3226 10.1403 7.86731 -28.3716 -59.2473 0.291764
lowerback 33.1953 2.70327 -3.13259
upperback 14.2764 1.4 0.737629
thorax -1.44849 0.0300016 2.01013
lowerneck 5.92224 -15.5729 -17.5116
upperneck 19.0408 -25.9106 19.0461
head 9.96749 -12.8229 6.70439
rclavicle 4.95968e-014 -3.24019e-014
rhumerus -0.305001 -13.7769 -99.1037
rradius 55.3272
rwrist 10.5464
rhand -17.4569 34.2196
rfingers 7.12502
rthumb 8.79449 4.42283
lclavicle 4.95968e-014 -3.24019e-014
lhumerus -45.1686 -4.52578 95.9533
lradius 65.5752
lwrist 29.4871
lhand -15.4277 46.0848
lfingers 7.12502
lthumb 10.7522 75.7897
rfemur -63.9305 -9.85627 10.4758
rtibia 96.5436
rfoot -1.6517 2.66376
rtoes 5.47709
lfemur -58.6726 12.4249 1.52701
ltibia 94.0857
lfoot -0.601321 -15.4789
ltoes -12.9704
165
root 12.2995 10.1372 7.89071 -28.615 -59.3176 0.508107
lowerback 32.4038 2.76103 -3.20523
upperback 14.3611 1.53778 0.830506
thorax -1.39503 0.103721 2.28328
lowerneck 6.41204 -15.5347 -17.9385
upperneck 18.8205 -25.911 19.1249
head 9.87548 -12.885 6.832
rclavicle 1.67973e-014 -8.84592e-015
rhumerus -0.90584 -12.6813 -98.3152
rradius 54.5369
rwrist 10.5825
rhand -18.2713 33.8252
rfingers 7.12502
rthumb 8.00849 3.9969
lclavicle 1.67973e-014 -8.84592e-015
lhumerus -45.2309 -4.83782 96.2325
lradius 65.2045
lwrist 29.8347
lhand -14.9329 46.4598
lfingers 7.12502
lthumb 11.2295 76.1393
rfemur -63.8298 -9.73666 9.7073
rtibia 97.083
rfoot -0.131382 4.31572
rtoes 3.46742
lfemur -58.8402 12.4018 1.19499
ltibia 94.6382
lfoot -0.701174 -14.3936
ltoes -10.764
166
root 12.2754 10.1261 7.91357 -28.9212 -59.388 0.729267
lowerback 32.2434 2.83743 -3.26632
upperback 14.1329 1.6535 0.917789
thorax -1.60159 0.173465 2.37872
lowerneck 6.94587 -15.4516 -17.8998
upperneck 18.4428 -25.7862 19.124
head 9.61123 -12.8724 6.90184
rclavicle -7.36746e-014 2.11706e-014
rhumerus -1.787 -11.6796 -97.6504
rradius 54.2089
rwrist 10.506
rhand -18.6344 33.3923
rfingers 7.12502
rthumb 7.65803 3.551
lclavicle -7.36746e-014 2.11706e-014
lhumerus -45.2418 -5.35991 96.4459
lradius 64.7026
lwrist 30.1254
lhand -14.0616 47.1771
lfingers 7.12502
lthumb 12.0697 76.809
rfemur -63.6936 -9.5753 8.96694
rtibia 97.6373
rfoot 1.39779 5.9145
rtoes 4.02269
lfemur -59.0173 12.3898 0.881039
ltibia 95.253
lfoot -0.938804 -13.1904
ltoes -8.74744
167
root 12.2555 10.103 7.94133 -29.3208 -59.4475 0.953658
lowerback 32.109 2.83013 -3.15914
upperback 14.1363 1.67843 0.829059
thorax -1.53743 0.195048 2.21149
lowerneck 6.65225 -15.541 -17.5496
upperneck 18.5501 -25.8349 18.8844
head 9.62328 -12.8616 6.73621
rclavicle 6.23687e-014 -2.69353e-014
rhumerus -2.31735 -10.5262 -97.1935
rradius 54.0481
rwrist 10.3725
rhand -19.3195 32.9295
rfingers 7.12502
rthumb 6.9967 3.06513
lclavicle 6.23687e-014 -2.69353e-014
lhumerus -44.8752 -6.07355 96.5188
lradius 64.2677
lwrist 30.4426
lhand -14.3731 48.2146
lfingers 7.12502
lthumb 11.7693 77.8639
rfemur -63.4388 -9.42082 8.28623
rtibia 98.1252
rfoot 2.49549 7.50875
rtoes 3.95555
lfemur -59.2166 12.4094 0.499309
ltibia 95.938
lfoot -1.24158 -12.3962
ltoes -10.8046
168
root 12.2344 10.086 7.9718 -29.6105 -59.5162 1.1792
lowerback 31.6935 2.84712 -2.86352
upperback 14.2776 1.79419 0.73195
thorax -1.19374 0.265071 1.90215
lowerneck 6.13684 -15.8385 -17.3831
upperneck 18.6062 -26.1783 18.7912
head 9.77013 -12.9738 6.56229
rclavicle 5.34234e-015 1.05356e-014
rhumerus -2.73644 -9.6351 -96.7588
rradius 54.0568
rwrist 10.4972
rhand -20.5237 32.5453
rfingers 7.12502
rthumb 5.83422 2.64561
lclavicle 5.34234e-015 1.05356e-014
lhumerus -44.3719 -7.49447 96.844
lradius 63.8735
lwrist 30.5835
lhand -15.3576 49.5143
lfingers 7.12502
lthumb 10.8199 79.2156
rfemur -63.2218 -9.45712 7.81761
rtibia 98.5105
rfoot 3.17515 9.24226
rtoes 3.42291
lfemur -59.4595 12.5146 0.0352726
ltibia 96.5615
lfoot -1.75306 -11.7766
ltoes -13.0321
169
root 12.2113 10.0715 7.99804 -29.8061 -59.5341 1.33336
lowerback 31.3487 2.89242 -2.71291
upperback 14.2857 1.91841 0.764056
thorax -1.03999 0.336763 1.81698
lowerneck 6.01509 -15.9976 -17.5133
upperneck 18.4532 -26.3817 18.875
head 9.81355 -13.0641 6.55163
rclavicle 3.75455e-014 -2.33572e-015
rhumerus -3.59306 -8.88165 -96.3356
rradius 54.5663
rwrist 10.5035
rhand -20.9635 31.6765
rfingers 7.12502
rthumb 5.40958 1.76559
lclavicle 3.75455e-014 -2.33572e-015
lhumerus -44.2146 -8.9266 97.4692
lradius 63.4489
lwrist 30.2966
lhand -16.0037 51.268
lfingers 7.12502
lthumb 10.1966 81.0009
rfemur -63.0227 -9.70645 7.57799
rtibia 98.873
rfoot 3.22016 11.2783
rtoes 2.35109
lfemur -59.6312 12.615 -0.473633
ltibia 97.003
lfoot -2.36352 -11.0788
ltoes -10.3346
170
root 12.1869 10.0522 8.02553 -29.9168 -59.4351 1.34686
lowerback 31.2897 2.85989 -2.6909
upperback 14.1293 1.90666 0.829917
thorax -1.19593 0.341159 1.88063
lowerneck 6.20676 -15.9241 -17.7351
upperneck 18.2232 -26.2967 19.0157
head 9.73386 -13.0514 6.66223
rclavicle -5.8393e-016 1.51573e-015
rhumerus -4.78081 -8.1956 -96.0901
rradius 55.4231
rwrist 10.5529
rhand -20.7457 30.515
rfingers 7.12502
rthumb 5.61983 0.609545
lclavicle -5.8393e-016 1.51573e-015
lhumerus -44.4137 -10.1014 98.2069
lradius 63.0823
lwrist 29.8291
lhand -16.2395 53.5767
lfingers 7.12502
lthumb 9.96912 83.3206
rfemur -62.7104 -9.93955 7.29513
rtibia 99.103
rfoot 2.59387 12.9563
rtoes 2.83819
lfemur -59.767 12.6175 -1.027
ltibia 97.2397
lfoot -3.61031 -10.4979
ltoes -10.0339
171
root 12.1668 10.0357 8.05427 -29.972 -59.3726 1.40943
lowerback 31.2528 2.82571 -2.6452
upperback 13.9504 1.89815 0.872862
thorax -1.38594 0.350403 1.90381
lowerneck 6.36757 -15.7775 -18.1464
upperneck 17.9157 -26.1544 19.4081
head 9.68777 -13.013 6.89153
rclavicle 6.37602e-014 2.01642e-014
rhumerus -5.95831 -7.80479 -96.0607
rradius 56.4429
rwrist 10.9154
rhand -20.3208 29.7114
rfingers 7.12502
rthumb 6.03007 -0.182814
lclavicle 6.37602e-014 2.01642e-014
lhumerus -44.7287 -11.3422 99.0574
lradius 62.7831
lwrist 29.4014
lhand -16.5117 55.6199
lfingers 7.12502
lthumb 9.70651 85.3762
rfemur -62.4969 -10.0949 6.96924
rtibia 99.1606
rfoot 1.67439 13.7634
rtoes 6.01518
lfemur -59.9238 12.6283 -1.64574
ltibia 97.2584
lfoot -5.4891 -11.0724
ltoes -18.4234
